<?xml version="1.0" encoding="UTF-8"?><svg xmlns="http://www.w3.org/2000/svg" viewBox="0 0 28.81 45.62"><defs><style>.d{fill:#fff;}</style></defs><g id="a"/><g id="b"><g id="c"><g><path class="d" d="M21.6,27.44c-.96,1.93-3.82,3.33-7.2,3.33s-6.43-1.5-7.28-3.53l1.56-.53v-2.79c1.7,1.51,3.76,2.33,5.87,2.33s3.92-.71,5.57-2.07v2.66l1.48,.6Z"/><path class="d" d="M25.08,11.88l-1.15-.32-.06-.02c-.11-.04-.35-.11-.86-.19l-.72,1.09-.03,.05-.03,.03-.11,.17c-.06,.09-.11,.17-.16,.25-.42,.61-.74,.95-1.7,.95h-.29l-.14-.08c-.28-.15-2.12-.43-5.28-.43s-4.94,.26-5.26,.43l-.14,.08h-.29c-.98,0-1.3-.35-1.73-1-.05-.07-.09-.14-.14-.22l-.1-.16-.03-.02-.03-.07-.71-1.08c-.51,.08-.76,.15-.87,.18l-.06,.02-1.11,.22c-.3,.67-.4,1.62-.24,2.64,.2,1.34,.8,2.41,1.48,2.81,.07,.04,.14,.08,.22,.11,.58,2.27,1.69,4.25,3.14,5.7,1.61,1.61,3.65,2.57,5.87,2.57,2.08,0,4.01-.84,5.57-2.28,1.62-1.48,2.85-3.57,3.47-6,.78-.29,1.47-1.44,1.69-2.91,.14-.97,.05-1.87-.21-2.54Zm-.43,2.45c-.2,1.32-.81,2.22-1.28,2.39l-.31,.12-.08,.32c-.57,2.26-1.73,4.28-3.27,5.69-1.5,1.38-3.27,2.11-5.14,2.11-1.99,0-3.86-.82-5.42-2.38-1.41-1.4-2.43-3.27-2.98-5.41l-.09-.34-.33-.11s-.03-.01-.07-.04c-.46-.27-1.01-1.12-1.19-2.37-.11-.73-.08-1.43,.08-1.98l.83-.16,.06-.03s.15-.04,.37-.08l.46,.69,.08,.15,.06,.05,.18,.28c.48,.71,.96,1.3,2.27,1.3h.46l.28-.15c.21-.09,1.84-.35,4.96-.35s4.75,.27,5,.37l.25,.14h.46c1.28,0,1.77-.56,2.23-1.23l.24-.38,.02-.03,.08-.12,.47-.72c.2,.04,.3,.07,.35,.08l.07,.03,.85,.24c.14,.55,.17,1.23,.07,1.92Z"/><polygon class="d" points=".03 40.65 .16 40.65 5.54 40.65 5.54 35.93 23.39 35.93 23.39 40.65 28.81 40.65 28.81 45.62 0 45.62 0 40.65 .03 40.65"/><path class="d" d="M.67,28.21v11.8H4.9v-13.11l-4.22,1.31Zm2.11,11.13c-.76,0-1.37-.62-1.37-1.38s.62-1.37,1.37-1.37,1.38,.62,1.38,1.37-.62,1.38-1.38,1.38Z"/><path class="d" d="M24.03,26.9v13.11h4.22v-11.8l-4.22-1.31Zm2.11,12.44c-.76,0-1.37-.62-1.37-1.38s.61-1.37,1.37-1.37,1.37,.62,1.37,1.37-.62,1.38-1.37,1.38Z"/><path class="d" d="M24.39,7.23v3.93c0-.18-.57-.34-1.55-.47-.05,0-.1-.01-.14-.02l-.95,1.44s0,.01-.01,.02c-.6,.92-.67,1.14-1.47,1.14h-.13c-.54-.29-2.84-.51-5.58-.51s-5.01,.21-5.57,.51h-.13c-.81,0-.87-.22-1.47-1.14,0,0,0-.01-.01-.02l-.96-1.44s-.1,.01-.14,.02c-.98,.13-1.55,.29-1.55,.47v-3.93C4.73,2.92,9.13,0,14.56,0s9.83,2.92,9.83,7.23Z"/></g></g></g></svg>