<?xml version="1.0" encoding="UTF-8"?><svg xmlns="http://www.w3.org/2000/svg" viewBox="0 0 56.74 59.97"><defs><style>.d{fill:#fff;}</style></defs><g id="a"/><g id="b"><g id="c"><g><path class="d" d="M34.32,10.6v.09h.26l-.26-.09Zm20.04-.88c.13,0,.25,.02,.36,.04v-.04h-.36Zm.13,.97h.23v-.08l-.23,.08Z"/><path class="d" d="M55.35,9.77c-.13-.03-.26-.05-.39-.05h-.24v.04c-.11-.02-.23-.04-.36-.04h-20.17c-.98,0-1.78,.8-1.78,1.79V58.18c0,.99,.8,1.78,1.78,1.78h20.77c.13,0,.26-.01,.39-.04,.79-.18,1.39-.88,1.39-1.74V11.51c0-.86-.6-1.57-1.39-1.74Zm-7.36,.92h6.5l.23-.08v.08h-.23l-6.5,2.29v-2.29Zm-13.67-.09l.26,.09h6.5v2.29l-6.5-2.29h-.26v-.09Zm0,1.43l6.76,2.38v4.77l-6.76-2.38v-4.77Zm0,6.2l6.76,2.38v4.76l-6.76-2.38v-4.76Zm0,6.19l6.76,2.39v4.76l-6.76-2.38v-4.77Zm0,6.2l6.76,2.38v4.76l-6.76-2.38v-4.76Zm0,6.2l6.76,2.38v4.76l-6.76-2.38v-4.76Zm0,6.19l6.76,2.38v4.77l-6.76-2.39v-4.76Zm0,6.2l6.76,2.38v4.76l-6.76-2.38v-4.76Zm0,9.59v-3.4l6.76,2.39v1.01h-6.76Zm8.1,0V10.69h1.56V58.8h-1.56Zm4.24,0h-1.57V10.69h1.57V58.8Zm8.09,0h-6.76v-1.01l6.76-2.39v3.4Zm0-4.83l-6.76,2.38v-4.76l6.76-2.38v4.76Zm0-6.2l-6.76,2.39v-4.77l6.76-2.38v4.76Zm0-6.19l-6.76,2.38v-4.76l6.76-2.38v4.76Zm0-6.2l-6.76,2.38v-4.76l6.76-2.38v4.76Zm0-6.19l-6.76,2.38v-4.76l6.76-2.39v4.77Zm0-6.2l-6.76,2.38v-4.76l6.76-2.38v4.76Zm0-6.19l-6.76,2.38v-4.77l6.76-2.38v4.77Z"/><rect class="d" x="45.09" y="59.96" width="1.57" height="0"/><rect class="d" x="42.42" y="59.96" width="1.56" height="0"/><rect class="d" x="29.69" y="19.87" width="1.65" height="29.95"/><path class="d" d="M28.69,30.89v7.91H0v-7.91H12.53c.16,.57,.44,1.1,.81,1.54,.68,.81,1.63,1.27,2.62,1.27,1.6,0,2.95-1.18,3.43-2.81h9.3Z"/><path class="d" d="M18.55,2.61h-5.18c.21-1.48,1.29-2.61,2.59-2.61,.72,0,1.38,.35,1.85,.91,.39,.45,.65,1.04,.74,1.7Z"/><path class="d" d="M18.58,29.03v.56c0,1.72-1.17,3.11-2.62,3.11-.72,0-1.38-.35-1.85-.91-.47-.56-.77-1.34-.77-2.2v-.56h5.24Z"/><path class="d" d="M20.32,8.97h-2.5l2.69,.97c.07,.03,.14,.06,.21,.1t.02,0c.39,.16,.67,.55,.67,1.01,0,.6-.49,1.09-1.09,1.09h-2.5l2.69,.97c.07,.03,.14,.06,.21,.1t.02,.01c.39,.16,.67,.55,.67,1,0,.61-.49,1.1-1.09,1.1h-2.47l2.66,.96c.08,.03,.16,.07,.23,.12,.39,.16,.67,.55,.67,1,0,.6-.49,1.09-1.09,1.09h-2.5l2.69,.97c.07,.03,.14,.06,.2,.1,.41,.15,.7,.55,.7,1.02,0,.6-.49,1.09-1.09,1.09h-2.5l2.69,.97c.07,.03,.14,.06,.21,.1t.02,0c.39,.16,.67,.55,.67,1,0,.6-.49,1.09-1.09,1.09h-2.5l2.69,.97c.07,.03,.14,.06,.21,.1t.02,0c.39,.16,.67,.55,.67,1.01,0,.6-.49,1.09-1.09,1.09H11.24c-.61,0-1.1-.49-1.1-1.09s.49-1.1,1.1-1.1h2.87l-2.75-.99h-.12c-.61,0-1.1-.49-1.1-1.09s.49-1.09,1.1-1.09h2.89l-2.74-.99h-.15c-.61,0-1.1-.49-1.1-1.09s.49-1.1,1.1-1.1h2.87l-2.75-.99h-.12c-.61,0-1.1-.49-1.1-1.09s.49-1.09,1.1-1.09h2.89l-2.74-.99h-.15c-.61,0-1.1-.49-1.1-1.1s.49-1.09,1.1-1.09h2.89l-2.74-.99h-.15c-.61,0-1.1-.49-1.1-1.09s.49-1.1,1.1-1.1h2.87l-2.75-.99h-.12c-.61,0-1.1-.49-1.1-1.09s.49-1.09,1.1-1.09h2.89l-2.74-.99h-.15c-.61,0-1.1-.49-1.1-1.1s.49-1.09,1.1-1.09h9.08c.6,0,1.09,.49,1.09,1.09s-.49,1.1-1.09,1.1h-2.5l2.69,.97c.07,.03,.14,.06,.21,.1t.02,0c.39,.16,.67,.55,.67,1,0,.6-.49,1.09-1.09,1.09Z"/><polygon class="d" points="34.58 10.69 34.32 10.69 34.32 10.6 34.58 10.69"/><path class="d" d="M54.72,9.72v.04c-.11-.02-.23-.04-.36-.04h.36Z"/><polygon class="d" points="54.72 10.61 54.72 10.69 54.49 10.69 54.72 10.61"/></g></g></g></svg>