<?xml version="1.0" encoding="UTF-8"?><svg xmlns="http://www.w3.org/2000/svg" viewBox="0 0 398.03 276.64"><defs><style>.d{fill:#44bcc5;}</style></defs><g id="a"/><g id="b"><g id="c"><g><path class="d" d="M359.34,93.82h-6.92c-3.62-5.69-6.74-11.38-8.64-16.51,0,0-30.2-77.32-60.4-77.32H113.65c-30.2,0-60.4,77.32-60.4,77.32-1.91,5.13-5.02,10.82-8.65,16.51h-5.91c-.84-4.53-6.31-17.12-12.96-17.12-15.58,0-25.72,5.86-25.72,13.09s5.86,13.09,13.09,13.09h12.63c.95,0,1.87-.02,2.76-.06h9.99c-10.28,14.28-21.48,26.43-21.48,26.43-10.87,12.08-5.44,43.49-5.44,43.49v103.89h53.15v-19.33h32.68c.32-6.38,5.55-11.48,12.02-11.48h178.19c6.47,0,11.7,5.09,12.02,11.48h32.68v19.33h53.15v-103.89s5.44-31.41-5.44-43.49c0,0-11.2-12.16-21.48-26.43h11c.89,.04,1.81,.06,2.76,.06h12.63c7.23,0,13.09-5.86,13.09-13.09s-10.15-13.09-25.72-13.09c-6.65,0-12.13,12.59-12.96,17.12Zm-293.28-14.69C76.95,51.31,100.14,10.13,115.33,10.13h166.35c15.19,0,38.38,41.18,49.21,68.83,.22,.6,.46,1.2,.71,1.82H65.42c.22-.56,.44-1.11,.64-1.64Zm165.57,29.04c4.89,0,8.86,3.97,8.86,8.86h-89.19c0-4.89,3.96-8.86,8.86-8.86h70.47v.1c.34-.04,.66-.1,1.01-.1Zm-33.11,45.06h83.64l-14.49,25.08-69.16,3.74-69.16-3.74-14.49-25.08h83.65Zm-168.24,13.55c-6.62-.53-10.28-6.1-8.14-12.39l3.47-10.16c2.15-6.29,9.21-10.26,15.7-8.83l38.42,8.48c6.49,1.43,13.34,7.82,15.24,14.19l.77,2.61c1.89,6.37-1.98,11.15-8.6,10.62l-56.85-4.53Zm281.34,60.94H85.42c-8.26,0-14.95-6.69-14.95-14.95s6.69-14.95,14.95-14.95h226.21c8.25,0,14.95,6.7,14.95,14.95s-6.7,14.95-14.95,14.95Zm51.92-83.49l3.47,10.16c2.15,6.29-1.51,11.86-8.14,12.39l-56.85,4.53c-6.63,.52-10.49-4.26-8.6-10.62l.78-2.61c1.89-6.37,8.74-12.75,15.23-14.19l38.42-8.48c6.49-1.43,13.55,2.54,15.7,8.83Z"/><path class="d" d="M89.8,202.3c-5.78,0-10.47,4.69-10.47,10.47s4.69,10.47,10.47,10.47,10.47-4.69,10.47-10.47-4.69-10.47-10.47-10.47Z"/><path class="d" d="M308.56,202.3c-5.78,0-10.47,4.69-10.47,10.47s4.69,10.47,10.47,10.47,10.47-4.69,10.47-10.47-4.69-10.47-10.47-10.47Z"/><path class="d" d="M95.75,160.68l-.77-2.61c-1.89-6.37-8.75-12.75-15.24-14.19l-38.42-8.48c-6.49-1.43-13.55,2.54-15.7,8.83l-3.47,10.16c-2.15,6.29,1.51,11.86,8.14,12.39l56.85,4.53c6.62,.52,10.5-4.26,8.6-10.62Zm-50.16,5.83c-7.34,0-13.29-5.95-13.29-13.29s5.95-13.29,13.29-13.29,13.29,5.95,13.29,13.29-5.95,13.29-13.29,13.29Zm28.45,2.35c-5.97,0-10.82-4.84-10.82-10.81s4.84-10.82,10.82-10.82,10.82,4.84,10.82,10.82-4.84,10.81-10.82,10.81Z"/><path class="d" d="M347.85,135.4l-38.42,8.48c-6.49,1.43-13.34,7.82-15.23,14.19l-.78,2.61c-1.89,6.37,1.98,11.15,8.6,10.62l56.85-4.53c6.63-.53,10.29-6.1,8.14-12.39l-3.47-10.16c-2.15-6.29-9.21-10.26-15.7-8.83Zm-32.72,33.47c-5.97,0-10.82-4.84-10.82-10.81s4.84-10.82,10.82-10.82,10.82,4.84,10.82,10.82-4.84,10.81-10.82,10.81Zm41.73-15.64c0,7.34-5.95,13.29-13.29,13.29s-13.29-5.95-13.29-13.29,5.95-13.29,13.29-13.29,13.29,5.95,13.29,13.29Z"/></g></g></g></svg>