<?xml version="1.0" encoding="UTF-8"?><svg xmlns="http://www.w3.org/2000/svg" viewBox="0 0 418.09 274.08"><defs><style>.d{fill:#44bcc5;}</style></defs><g id="a"/><g id="b"><g id="c"><path class="d" d="M418.09,100.49c0-7.29-5.91-13.21-13.21-13.21h-24.86C369.17,53.01,346.14,0,307.52,0H110.57C71.95,0,48.92,53.01,38.07,87.28H13.21c-7.3,0-13.21,5.91-13.21,13.21s5.91,13.21,13.21,13.21H30.91c-.29,1.32-.43,2.04-.43,2.04-16.91,0-21.85,20.17-22.24,22.84l-.06,.23s0,.08,0,.13c-.19,1.36-.32,2.73-.32,4.14v62.55c0,1.58,.16,3.13,.39,4.65-.23,1.52-.39,3.06-.39,4.65v28.74c0,16.81,13.63,30.43,30.43,30.43h31.07c16.81,0,30.43-13.62,30.43-30.43v-7.61h218.51v7.61c0,16.81,13.62,30.43,30.43,30.43h31.07c16.8,0,30.43-13.62,30.43-30.43v-28.74c0-1.58-.16-3.13-.39-4.65,.23-1.52,.39-3.06,.39-4.65v-62.55c0-1.41-.13-2.79-.32-4.14,0-.04,0-.08,0-.13l-.06-.23c-.4-2.67-5.34-22.84-22.24-22.84,0,0-.14-.72-.43-2.04h17.7c7.3,0,13.21-5.91,13.21-13.21ZM110.88,158.46H31v-17.58H110.88v17.58Zm22.82,61.53h-6.97v-79.11h6.97v79.11Zm18.07,0h-10.46v-79.11h10.46v79.11Zm18.07,0h-10.46v-79.11h10.46v79.11Zm18.07,0h-10.46v-79.11h10.46v79.11Zm18.07,0h-10.46v-79.11h10.46v79.11ZM58.33,87.28c12.19-37.11,31.45-70.16,52.24-70.16h196.96c20.79,0,40.05,33.05,52.24,70.16H58.33ZM224.05,219.99h-10.46v-79.11h10.46v79.11Zm18.07,0h-10.46v-79.11h10.46v79.11Zm18.07,0h-10.46v-79.11h10.46v79.11Zm18.07,0h-10.46v-79.11h10.46v79.11Zm13.31,0h-5.71v-79.11h5.71v79.11Zm93.19-61.53h-79.88v-17.58h79.88v17.58Z"/></g></g></svg>