<?xml version="1.0" encoding="UTF-8"?><svg xmlns="http://www.w3.org/2000/svg" viewBox="0 0 276.8 273.78"><defs><style>.d{fill:#44bcc5;}</style></defs><g id="a"/><g id="b"><g id="c"><g><g><path class="d" d="M276.8,85.47c0,2.49-2.03,4.51-4.51,4.51h-27.68v-4.51h2.03c-.11-1.51-.22-3.03-.35-4.51h26c2.49,0,4.51,2,4.51,4.51Z"/><path class="d" d="M32.19,85.47v4.51H4.51c-2.49,0-4.51-2.03-4.51-4.51s2.03-4.51,4.51-4.51H30.52c-.14,1.49-.24,3-.35,4.51h2.03Z"/><path class="d" d="M138.4,118.34c-8.33,0-15.08,6.78-15.08,15.08s6.76,15.11,15.08,15.11,15.08-6.78,15.08-15.11-6.76-15.08-15.08-15.08Zm0,0c-8.33,0-15.08,6.78-15.08,15.08s6.76,15.11,15.08,15.11,15.08-6.78,15.08-15.11-6.76-15.08-15.08-15.08Zm0,0c-8.33,0-15.08,6.78-15.08,15.08s6.76,15.11,15.08,15.11,15.08-6.78,15.08-15.11-6.76-15.08-15.08-15.08Zm0,0c-8.33,0-15.08,6.78-15.08,15.08s6.76,15.11,15.08,15.11,15.08-6.78,15.08-15.11-6.76-15.08-15.08-15.08Zm0,0c-8.33,0-15.08,6.78-15.08,15.08s6.76,15.11,15.08,15.11,15.08-6.78,15.08-15.11-6.76-15.08-15.08-15.08Zm0,0c-8.33,0-15.08,6.78-15.08,15.08s6.76,15.11,15.08,15.11,15.08-6.78,15.08-15.11-6.76-15.08-15.08-15.08Zm0,0c-8.33,0-15.08,6.78-15.08,15.08s6.76,15.11,15.08,15.11,15.08-6.78,15.08-15.11-6.76-15.08-15.08-15.08Zm0,0c-8.33,0-15.08,6.78-15.08,15.08s6.76,15.11,15.08,15.11,15.08-6.78,15.08-15.11-6.76-15.08-15.08-15.08Zm0,0c-8.33,0-15.08,6.78-15.08,15.08s6.76,15.11,15.08,15.11,15.08-6.78,15.08-15.11-6.76-15.08-15.08-15.08Zm0,0c-8.33,0-15.08,6.78-15.08,15.08s6.76,15.11,15.08,15.11,15.08-6.78,15.08-15.11-6.76-15.08-15.08-15.08Zm117.56-28.36c-.11-1.49-.19-3-.3-4.51s-.22-3.03-.35-4.51c-.57-7.11-1.27-13.92-2.03-19.33l-6.16-43.76c-1.38-9.84-10.65-17.87-20.57-17.87H50.25c-9.95,0-19.19,8.03-20.57,17.87l-6.16,43.76c-.76,5.41-1.46,12.22-2.03,19.33-.14,1.49-.24,3-.35,4.51s-.19,3.03-.3,4.51c-.41,7.14-.68,14.06-.68,19.54v9.6l29.11,32.82c2.08-1.11,4.46-1.73,6.97-1.73,8.33,0,15.06,6.73,15.06,15.06,0,3.16-.97,6.08-2.65,8.49l36.19,40.76,1.05,1.19,9.62,10.84h45.74l9.6-10.81,1.08-1.22,36.19-40.76c-1.68-2.41-2.65-5.33-2.65-8.49,0-8.33,6.73-15.06,15.06-15.06,2.51,0,4.89,.62,6.97,1.73l29.11-32.82v-9.6c0-5.49-.27-12.41-.68-19.54ZM142.91,17.87h95.18l6.16,43.76c.76,5.41,1.46,12.22,2.03,19.33,.14,1.49,.24,3,.35,4.51h-103.72V17.87Zm15.08,115.56c0,10.84-8.76,19.62-19.6,19.62s-19.6-8.79-19.6-19.62,8.76-19.6,19.6-19.6,19.6,8.79,19.6,19.6ZM32.55,61.63l6.16-43.76h95.18V85.47H30.17c.11-1.51,.22-3.03,.35-4.51,.57-7.11,1.27-13.92,2.03-19.33Zm90.77,71.79c0,8.33,6.76,15.11,15.08,15.11s15.08-6.78,15.08-15.11-6.76-15.08-15.08-15.08-15.08,6.78-15.08,15.08Zm15.08-15.08c-8.33,0-15.08,6.78-15.08,15.08s6.76,15.11,15.08,15.11,15.08-6.78,15.08-15.11-6.76-15.08-15.08-15.08Zm0,0c-8.33,0-15.08,6.78-15.08,15.08s6.76,15.11,15.08,15.11,15.08-6.78,15.08-15.11-6.76-15.08-15.08-15.08Zm0,0c-8.33,0-15.08,6.78-15.08,15.08s6.76,15.11,15.08,15.11,15.08-6.78,15.08-15.11-6.76-15.08-15.08-15.08Zm0,0c-8.33,0-15.08,6.78-15.08,15.08s6.76,15.11,15.08,15.11,15.08-6.78,15.08-15.11-6.76-15.08-15.08-15.08Zm0,0c-8.33,0-15.08,6.78-15.08,15.08s6.76,15.11,15.08,15.11,15.08-6.78,15.08-15.11-6.76-15.08-15.08-15.08Zm0,0c-8.33,0-15.08,6.78-15.08,15.08s6.76,15.11,15.08,15.11,15.08-6.78,15.08-15.11-6.76-15.08-15.08-15.08Zm0,0c-8.33,0-15.08,6.78-15.08,15.08s6.76,15.11,15.08,15.11,15.08-6.78,15.08-15.11-6.76-15.08-15.08-15.08Zm0,0c-8.33,0-15.08,6.78-15.08,15.08s6.76,15.11,15.08,15.11,15.08-6.78,15.08-15.11-6.76-15.08-15.08-15.08Z"/></g><g><path class="d" d="M20.17,119.13v107.42s25.14-3.16,49.63-6.27c3.03-.38,6.05-.76,9.03-1.14,10.52-1.32,20.27-2.57,27.09-3.43,5-.62,8.41-1.05,9.35-1.19,.19,0,.27-.03,.27-.03,0-52.66-42.71-95.37-95.37-95.37Zm36.09,31.09c8.33,0,15.06,6.73,15.06,15.06,0,3.16-.97,6.08-2.65,8.49-2.68,3.95-7.24,6.54-12.41,6.54-8.3,0-15.03-6.73-15.03-15.03,0-5.78,3.27-10.81,8.06-13.33,2.08-1.11,4.46-1.73,6.97-1.73Z"/><path class="d" d="M161.27,214.52l9.6,1.22,27.11,3.41,9.03,1.14,49.63,6.27V119.13c-52.66,0-95.37,42.71-95.37,95.39Zm59.28-64.31c2.51,0,4.89,.62,6.97,1.73,4.78,2.51,8.06,7.54,8.06,13.33,0,8.3-6.73,15.03-15.03,15.03-5.16,0-9.73-2.59-12.41-6.54-1.68-2.41-2.65-5.33-2.65-8.49,0-8.33,6.73-15.06,15.06-15.06Z"/></g><path class="d" d="M153.48,133.43c0,8.33-6.76,15.11-15.08,15.11s-15.08-6.78-15.08-15.11,6.76-15.08,15.08-15.08,15.08,6.78,15.08,15.08Z"/><path class="d" d="M138.4,109.31c-13.3,0-24.11,10.81-24.11,24.11s10.81,24.14,24.11,24.14,24.11-10.84,24.11-24.14-10.81-24.11-24.11-24.11Zm0,43.74c-10.84,0-19.6-8.79-19.6-19.62s8.76-19.6,19.6-19.6,19.6,8.79,19.6,19.6-8.76,19.62-19.6,19.62Z"/><g><rect class="d" x="26.18" y="242.79" width="35.45" height="30.99"/><rect class="d" x="215.17" y="242.79" width="35.45" height="30.99"/></g><path class="d" d="M256.64,214.51H20.16c-5.32,0-9.63,4.31-9.63,9.63v9.03c0,5.32,4.31,9.63,9.63,9.63h236.48c5.32,0,9.63-4.31,9.63-9.63v-9.03c0-5.32-4.31-9.63-9.63-9.63Z"/><g><path class="d" d="M202.48,247.3c-2.49,0-4.51-2.02-4.51-4.51v-31.89c0-2.49,2.02-4.51,4.51-4.51s4.51,2.02,4.51,4.51v31.89c0,2.49-2.02,4.51-4.51,4.51Z"/><path class="d" d="M74.31,247.3c-2.49,0-4.51-2.02-4.51-4.51v-31.89c0-2.49,2.02-4.51,4.51-4.51s4.51,2.02,4.51,4.51v31.89c0,2.49-2.02,4.51-4.51,4.51Z"/></g></g></g></g></svg>