<?xml version="1.0" encoding="UTF-8"?><svg xmlns="http://www.w3.org/2000/svg" viewBox="0 0 428.66 276.96"><defs><style>.d{fill:#44bcc5;}</style></defs><g id="a"/><g id="b"><g id="c"><path class="d" d="M12.76,276.96h58.69c7.02,0,12.76-3.16,12.76-7.02v-19.69H344.46v19.69c0,3.86,5.74,7.02,12.76,7.02h58.69c7.02,0,12.76-3.16,12.76-7.02V141.09s-1.07-17.91-7.71-29.36c.03,.01,.06,.02,.09,.03l-.53-.76c-.64-1.03-1.31-2.03-2.05-2.92l-17.91-25.6h.35c8.63,0,15.63-8.45,15.63-18.88s-7-18.88-15.63-18.88h-26.77l-31.66-32.93c-4.53-6.48-13.97-11.78-20.99-11.78H107.17c-7.02,0-16.46,5.3-20.99,11.78l-31.66,32.93H27.75c-8.63,0-15.63,8.45-15.63,18.88s7,18.88,15.63,18.88h.35l-17.91,25.6c-.74,.9-1.41,1.89-2.05,2.92l-.53,.76s.06-.02,.09-.03c-6.63,11.44-7.71,29.36-7.71,29.36v128.85c0,3.86,5.74,7.02,12.76,7.02Zm80.37-95.23c-10.8,0-19.56-10.58-19.56-23.64s8.76-23.64,19.56-23.64,19.56,10.58,19.56,23.64-8.76,23.64-19.56,23.64Zm162.66,58.58h-82.93v-25.44h82.93v25.44Zm17.22-58.58h-117.37c-10.8,0-19.56-10.58-19.56-23.64s8.76-23.64,19.56-23.64h117.37c10.8,0,19.56,10.58,19.56,23.64s-8.76,23.64-19.56,23.64Zm63.79,0c-10.8,0-19.57-10.58-19.57-23.64s8.76-23.64,19.57-23.64,19.56,10.58,19.56,23.64-8.76,23.64-19.56,23.64Zm69.32-23.64c0,13.05-8.76,23.64-19.56,23.64s-19.56-10.58-19.56-23.64,8.76-23.64,19.56-23.64,19.56,10.58,19.56,23.64ZM93.82,22.34c2.61-3.73,9.14-7.4,13.19-7.4h214.33c4.05,0,10.58,3.67,13.22,7.44l40.18,63.22H53.93L93.82,22.34Zm-50.44,112.12c10.8,0,19.56,10.58,19.56,23.64s-8.76,23.64-19.56,23.64-19.57-10.58-19.57-23.64,8.76-23.64,19.57-23.64Z"/></g></g></svg>