<?xml version="1.0" encoding="UTF-8"?><svg xmlns="http://www.w3.org/2000/svg" viewBox="0 0 495.01 274.51"><defs><style>.d{fill:#44bcc5;}</style></defs><g id="a"/><g id="b"><g id="c"><g><path class="d" d="M97.23,250.94H397.78v23.57h97.23v-127.89c-2.14,2.76-5.09,4.92-8.66,6.07l-47.81,15.36c-32.24,10.35-29.6,2.23-22.51-11.57,6.84-13.31,12.78-22.9,22.19-25.92l37.18-11.94c3.66-1.17,7.41-1.1,10.81-.03l-23.66-27.99h9.98c9.97,0,18.05-8.08,18.05-18.05s-8.08-18.05-18.05-18.05h-40.49l-36.56-43.25c-5.23-6.19-16.14-11.26-24.24-11.26H123.75c-8.1,0-19.01,5.06-24.24,11.26L62.96,54.51H23.2c-9.97,0-18.05,8.08-18.05,18.05s8.08,18.05,18.05,18.05h9.25l-23.66,27.99c3.4-1.07,7.16-1.14,10.81,.03l37.18,11.94c9.41,3.02,15.35,12.61,22.19,25.92,7.09,13.79,9.73,21.92-22.51,11.57l-47.81-15.36c-3.57-1.15-6.53-3.31-8.66-6.07v127.89H97.23v-23.57Zm12.27-20.01c-2.01-2.47-3.33-5.51-3.69-8.84H389.2c-.36,3.33-1.69,6.37-3.69,8.84H109.5Zm-3.69-12.52c.36-3.33,1.69-6.37,3.69-8.84H385.51c2.01,2.47,3.33,5.51,3.69,8.84H105.81Zm7.88-12.52c2.6-1.62,5.66-2.58,8.95-2.58h249.72c3.29,0,6.35,.95,8.95,2.58H113.69Zm237.92-29.1l-109.02,5.89-109.02-5.89-22.84-39.53H374.45l-22.84,39.53Zm-228.96,60.4c-3.29,0-6.35-.95-8.95-2.58H381.32c-2.6,1.62-5.66,2.58-8.95,2.58H122.65Zm290.11-27.99c6.1,0,11.05,4.95,11.05,11.05s-4.95,11.05-11.05,11.05-11.05-4.95-11.05-11.05,4.95-11.05,11.05-11.05ZM108.34,20.33c3.01-3.57,10.56-7.07,15.23-7.07h247.51c4.67,0,12.22,3.5,15.26,7.11l46.4,60.41c-209.35-11.54-370.47,0-370.47,0L108.34,20.33Zm-26.33,210.96c-6.1,0-11.05-4.95-11.05-11.05s4.95-11.05,11.05-11.05,11.05,4.95,11.05,11.05-4.95,11.05-11.05,11.05Z"/><path class="d" d="M263.96,159.97c0,11.8-9.56,21.36-21.36,21.36s-21.36-9.56-21.36-21.36,9.56-21.36,21.36-21.36,21.36,9.56,21.36,21.36Z"/><circle class="d" cx="242.6" cy="159.97" r="21.36"/></g></g></g></svg>