<?xml version="1.0" encoding="UTF-8"?><svg xmlns="http://www.w3.org/2000/svg" viewBox="0 0 58.41 60.32"><defs><style>.d{fill:#fff;}</style></defs><g id="a"/><g id="b"><g id="c"><g><path class="d" d="M56.43,42.66c-2.77-4.03-7.68-5.7-12.15-4.52l-8.34-8.34-1.76,1.76,5.6,5.6c.8,.8,.8,2.09,0,2.89-.4,.4-.92,.6-1.45,.6s-1.04-.2-1.44-.6l-5.6-5.61-1.76,1.77,7.62,7.62c-1.87,3.58-1.75,8.04,.69,11.6,2.36,3.44,6.28,5.15,10.16,4.86l-5.1-7.43c-.7-1.02-.44-2.4,.58-3.11l5.63-3.87c1.02-.7,2.41-.44,3.12,.57l5.09,7.43c1.67-3.51,1.47-7.79-.89-11.22ZM21.08,19.3c.52,0,1.05,.2,1.44,.6l6.25,6.25,1.76-1.76-8.11-8.11c1.78-3.58,1.58-7.99-.87-11.49C19.15,1.38,15.22-.3,11.35,.04l5.17,7.37c.71,1.02,.46,2.41-.55,3.12l-5.59,3.93c-1.02,.71-2.41,.47-3.12-.55L2.08,6.53c-1.63,3.54-1.39,7.81,1,11.22,2.84,4.04,7.84,5.65,12.35,4.36l8.69,8.69,1.77-1.76-6.25-6.25c-.8-.8-.8-2.09,0-2.89,.39-.4,.92-.6,1.44-.6Z"/><path class="d" d="M23.65,31.01h.48c.54,0,.97,.44,.97,.97v8.92c0,.54-.44,.97-.97,.97h-.48c-.54,0-.97-.44-.97-.97v-8.92c0-.54,.44-.97,.97-.97Z" transform="translate(-18.77 27.56) rotate(-45)"/><path class="d" d="M24.76,41.85l-13.78,15.03-1.7,1.85c-.53,.53-1.13,.93-1.79,1.19-.5,.21-1.01,.33-1.53,.37-.17,.02-.34,.03-.52,.03-1.39,0-2.78-.52-3.84-1.58-2.13-2.13-2.13-5.57,0-7.69l1.84-1.69,15.03-13.79,6.29,6.28Z"/><path class="d" d="M52.99,9.74l-2.62,4.12-2.32,.99-20.81,20.82-2.58-2.58L45.48,12.27l.99-2.31,4.12-2.62,.22,.22-3.04,2.54c-.53,.53-.29,1.67,.24,2.21,.55,.54,1.72,.86,2.26,.32l2.49-3.12,.23,.23Z"/></g></g></g></svg>