<?xml version="1.0" encoding="UTF-8"?><svg xmlns="http://www.w3.org/2000/svg" viewBox="0 0 69.39 66.47"><defs><style>.d{fill:#fff;}</style></defs><g id="a"/><g id="b"><g id="c"><g><path class="d" d="M56.37,38.35c-.14,.16-.09,.29,.12,.4,.03,.03,.09,.04,.14,.07,1.27-1.06,2.61-2.29,4.38-3.3,.35-.2,.68-.39,1.01-.54,0,0,0,0,0,0,.45-.21,.89-.36,1.43-.41,.41-.03,1.18,.12,1.18,.76,0,.75-.09,1.71-.17,2.43-.19,1.78-1.74,.11-2.08,.35-.45,.33,1,.85,1.25,1.21h0c1.7,0,3.64-.03,5.74-.08v20.7h-16.81v-.02h0c.18-.8,.28-1.62,.28-2.47,0-6.14-4.99-11.14-11.13-11.14s-11.14,5-11.14,11.14c0,.85,.09,1.67,.29,2.46h0s0,0,0,.03h-5.46c-1.02,0-1.32,0-1.96-.05-.29,0-.64-.03-1.15-.06-.26,0-.55-.03-.9-.04-.16-.02-.36-.02-.56-.03-.45-.03-.83-.09-1.14-.2-.06-.02-.1-.03-.15-.05-.06-.03-.12-.04-.18-.09-.12-.04-.23-.1-.32-.18-.17-.12-.27-.24-.36-.4-.06-.1-.11-.22-.14-.33-.09-.35-.06-.71,.03-1.01,0-.05,.02-.08,.03-.13,0-.03,.02-.06,.03-.09,.02-.07,.05-.15,.08-.21,.04-.09,.07-.17,.1-.23,.04-.03,.05-.06,.05-.06h0s0-.03,.05-.07v-.02s.06-.12,.1-.2c.03-.09,.09-.19,.14-.3,.04-.11,.09-.23,.12-.33,.05-.17,.08-.32,.08-.46,0-.86,0-1.65,0-2.35,0-.24,.02-.47,.02-.7v-.22c0-.16,0-.28,.01-.42v-.06c0-.18,.02-.36,.02-.53,0-.19,0-.38,.03-.56,0-.16,0-.35,.03-.5,0-.16,.01-.33,.03-.48,0-.14,.03-.29,.03-.43,.03-.24,.04-.44,.07-.66,1.66,.05,3.36,.15,4.92-.17,2.1-.5,2.7-2.21,3.2-4.11-2.01-.15-4.09-.13-6.14-.11,.18-.24,.36-.5,.57-.81,.14-.19-.04-.07,.18-.18l.09-.06,5.12-.29h.23l.31-.03h.02l22.53-1.27,1.44-.09-1.45,.08-17.33-15.85-.48-.45-5.05-4.61c4.01-.14,19.22,14.33,24.33,17.63h-.02v.07l.02-.07c.38-.09,.68-.19,.91-.28,1.44-.6,10.21-5.24,16.37-8.05v1.39c-5.16,2.25-11.56,5.39-13.02,7.13Z"/><path class="d" d="M52.11,38.16l-.02,.07v-.07h.02Z"/><path class="d" d="M20.97,47.68c-.39,0-.78,0-1.17-.02,.28-1.08,.72-1.72,1.44-2.72,.6,0,1.21,0,1.81,0,1.17,0,2.15,.02,3.03,.06-.49,1.4-1.11,2.17-2.36,2.46-.74,.15-1.62,.23-2.75,.23Z"/><path class="d" d="M41.76,48.41c-4.98,0-9.03,4.05-9.03,9.03s4.05,9.03,9.03,9.03,9.03-4.05,9.03-9.03-4.06-9.03-9.03-9.03Zm5.42,14.52l-.62,.56-.06,.03c-.1,.09-.28,.21-.45,.33l-.7,.41c-1.13,.6-2.33,.9-3.6,.9s-2.46-.3-3.56-.88c-.24-.11-.48-.26-.71-.41-.18-.12-.36-.25-.54-.39l-.58-.53c-.85-.83-1.47-1.79-1.86-2.88-.31-.86-.47-1.74-.47-2.63,0-.43,.04-.87,.12-1.31,.03-.25,.09-.53,.19-.82,.04-.18,.11-.4,.18-.6,.1-.26,.22-.52,.35-.76,1.13-2.23,3.28-3.79,5.75-4.15,.27-.05,.54-.07,.81-.08,.1-.01,.2-.01,.32-.01,.14,0,.25,0,.38,.01,.24,0,.51,.03,.78,.08,2.48,.37,4.62,1.93,5.74,4.17,.11,.2,.23,.44,.34,.75,.07,.2,.15,.42,.21,.64,.07,.24,.13,.51,.17,.78,.07,.41,.11,.84,.11,1.3,0,.91-.15,1.79-.46,2.63-.4,1.08-1.03,2.07-1.84,2.86Z"/><path class="d" d="M48.88,56.22c-.04-.25-.1-.5-.17-.74-.05-.2-.12-.4-.19-.59-.09-.24-.19-.47-.32-.7-1.02-2.05-3.02-3.55-5.37-3.9-.25-.04-.5-.06-.75-.07-.11-.01-.21-.01-.33-.01-.1,0-.19,0-.3,.01-.25,0-.5,.03-.76,.07-2.36,.35-4.34,1.84-5.38,3.9-.12,.22-.23,.46-.32,.7-.07,.18-.13,.38-.18,.58-.08,.24-.14,.49-.17,.75-.07,.39-.11,.8-.11,1.22,0,.86,.16,1.69,.44,2.46,.37,1.02,.96,1.93,1.72,2.68l.57,.51c.16,.13,.32,.25,.5,.36,.21,.14,.43,.28,.66,.39,1,.53,2.13,.82,3.33,.82s2.35-.3,3.35-.83l.67-.39c.16-.11,.33-.23,.49-.36h.02l.52-.48,.03-.03c.76-.74,1.35-1.66,1.72-2.67,.28-.77,.43-1.6,.43-2.46,0-.42-.03-.82-.1-1.22Zm-.92-1.11c.06,.17,.13,.35,.17,.52,0,.02,0,.02,0,.03l-4.15,1.35-.76,.25s0-.03,0-.04c-.02-.19-.09-.37-.17-.52-.02,0-.02-.02-.02-.03l.77-.24,4.15-1.35s0,.02,.01,.03Zm-5.13-4.21c2.05,.33,3.83,1.63,4.8,3.48l-3.06,1-1.24,.4-.5,.16v-5.04Zm-1.38-.08h.02c.11,0,.18,0,.25,0h.29s.05,0,.07,0v5.18h-.02c-.09-.02-.19-.03-.28-.03-.1,0-.21,0-.31,.03h-.02v-5.18Zm.3,5.96c.37,0,.66,.29,.66,.65s-.29,.66-.66,.66-.65-.3-.65-.66,.29-.65,.65-.65Zm-1.06-5.88v5.04l-.49-.16-1.23-.4-3.09-1.01c.98-1.85,2.76-3.15,4.81-3.47Zm-5.32,4.75c.06-.17,.11-.36,.18-.53,0,0,0-.03,.02-.05l4.15,1.36,.8,.25s0,0,0,0c-.1,.17-.16,.36-.19,.56v.02l-.78-.26-4.17-1.35h0Zm1.68,6.43c-.63-.64-1.12-1.38-1.44-2.19-.31-.77-.48-1.61-.48-2.46,0-.35,.02-.7,.09-1.04l3.09,1.01,1.23,.4,.49,.16-.31,.43-.75,1.04-.34,.46-1.58,2.19Zm1.06,.88h0c-.18-.13-.32-.24-.48-.35t-.01-.02l1.96-2.7,.63-.86,.47-.65s.02,.02,.02,.03c.12,.13,.26,.25,.43,.32,0,0,.03,.02,.04,.02l-.47,.65-.36,.49-2.22,3.07Zm3.64,1.09c-1.05,0-2.06-.24-2.98-.71l1.92-2.65,.58-.8,.18-.25,.32-.42,.31,.43,.17,.24,.58,.8,1.91,2.64c-.91,.48-1.92,.72-2.99,.72Zm4.12-1.44c-.12,.1-.27,.21-.44,.31v.02l-2.24-3.05-.36-.5-.45-.63s.02-.02,.04-.03c.15-.07,.3-.17,.42-.3,0,0,.02-.03,.03-.04l.46,.64,.62,.86,1.95,2.7-.03,.02Zm2.04-2.72c-.32,.8-.8,1.54-1.44,2.18l-1.57-2.18-.33-.46-.77-1.04-.3-.43,.49-.16,1.24-.4,3.07-1c.05,.35,.09,.68,.09,1.03,0,.85-.17,1.68-.48,2.46Z"/><path class="d" d="M29.08,33.5c.06,0,.12-.02,.19-.03l-1.43,4.7c-.41-.37-.68-.85-.82-1.37-.22,.11-.44,.2-.69,.28-1.83,.58-3.32-.09-4.23-1.24-.88,.12-1.76,.06-2.63-.16h0c-.33-.09-.64-.2-.96-.32-.45-.15-.9-.31-1.34-.51-1.6-.76-2.82-2.33-3.35-3.99-.32-1.02-.38-2.1-.21-3.14-3-.46-4.95-3.28-5.12-6.14-1.92-.77-3.57-2.17-4.63-4.01-4.55-1.71-5.75-9.51,.19-11.38,.71-.22,1.39-.32,2.02-.31,.88-.73,1.91-1.31,3.06-1.67,4.8-1.52,10.08,1.23,11.59,6.03,.22,.7,.35,1.41,.4,2.11,1.97,1.81,2.13,5.63-.94,6.89,.35,.89,.53,1.85,.49,2.8,.43,.03,.85,.1,1.27,.21h0c.31-.64,.87-1.16,1.74-1.44,3.02-.95,4.77,2.74,3.25,4.73,.3,.49,.55,1,.72,1.53,.32,1.04,.39,2.14,.21,3.2,.8,.85,1.25,2.05,1.23,3.23Z"/><path class="d" d="M31.84,41.33c-.87,.28-1.6,.02-2.09-.49l1.98-6.56c.82,.8,1.09,2.06,.59,3.13,1.3,.89,1.5,3.3-.48,3.92Z"/><path class="d" d="M24.18,9.75c-1.85,.58-.94,3.45,.91,2.86,1.85-.58,.94-3.45-.91-2.86Z"/><path class="d" d="M2.99,.11C.4,.92,1.66,4.93,4.25,4.12,6.84,3.3,5.57-.71,2.99,.11Z"/><path class="d" d="M52.11,38.16l-.02,.07v-.07h.02Z"/><polygon class="d" points="32.99 26.65 28.44 41.7 27.8 41.74 32.51 26.21 32.64 26.33 32.99 26.65"/></g></g></g></svg>